<mxfile host="www.draw.io" modified="2019-12-08T06:25:37.096Z" agent="Mozilla/5.0 (Windows NT 10.0; Win64; x64; rv:71.0) Gecko/20100101 Firefox/71.0" etag="vmW1Cvz9jTx2IV9VwhGl" version="12.3.8" type="github" pages="1">
  <diagram id="uNWm9hSnhF2zcXGH-H5W" name="Page-1">
    <mxGraphModel dx="805" dy="616" grid="1" gridSize="10" guides="1" tooltips="1" connect="1" arrows="1" fold="1" page="1" pageScale="1" pageWidth="850" pageHeight="1100" math="0" shadow="0">
      <root>
        <mxCell id="0"/>
        <mxCell id="1" parent="0"/>
        <mxCell id="tNTnbMQYnR6y0WdzU1tK-1" value="&lt;div style=&quot;font-size: 14px&quot;&gt;|| Project || /{project_name} ||&lt;br&gt;&lt;/div&gt;" style="rounded=0;whiteSpace=wrap;html=1;labelPosition=center;verticalLabelPosition=middle;align=left;verticalAlign=top;spacingLeft=0;spacingRight=0;spacingTop=0;spacingBottom=0;textDirection=ltr;fontSize=18;fillColor=#f5f5f5;strokeColor=#666666;fontColor=#333333;" parent="1" vertex="1">
          <mxGeometry x="120" y="60" width="440" height="510" as="geometry"/>
        </mxCell>
        <mxCell id="tNTnbMQYnR6y0WdzU1tK-4" value="&lt;div style=&quot;font-size: 14px&quot;&gt;|| Deploy || /[Project]/deploy ||&lt;br&gt;&lt;/div&gt;" style="rounded=0;whiteSpace=wrap;html=1;labelPosition=center;verticalLabelPosition=middle;align=left;verticalAlign=top;spacingLeft=0;spacingRight=0;spacingTop=0;spacingBottom=0;textDirection=ltr;fontSize=18;fillColor=#e1d5e7;strokeColor=#9673a6;" parent="1" vertex="1">
          <mxGeometry x="130" y="100" width="400" height="380" as="geometry"/>
        </mxCell>
        <mxCell id="tNTnbMQYnR6y0WdzU1tK-5" value="&lt;div&gt;Filler Variables&lt;/div&gt;&lt;div&gt;&lt;br&gt;&lt;/div&gt;&lt;div style=&quot;font-size: 14px&quot;&gt;project_name: doofie&lt;br&gt;&lt;/div&gt;&lt;div style=&quot;font-size: 14px&quot;&gt;&lt;font style=&quot;font-size: 14px&quot;&gt;URL&#39;s:&lt;/font&gt;&lt;/div&gt;&lt;div style=&quot;font-size: 12px&quot;&gt;&lt;font style=&quot;font-size: 14px&quot;&gt;&amp;nbsp; - project:&lt;/font&gt; /doofie/&lt;/div&gt;&lt;div style=&quot;font-size: 14px&quot;&gt;&amp;nbsp; - deploy: /doofie/deploy&lt;/div&gt;&lt;div style=&quot;font-size: 14px&quot;&gt;&amp;nbsp;&amp;nbsp;&amp;nbsp; - windows: /doofie/deploy/win&lt;br&gt;&lt;/div&gt;&lt;div style=&quot;font-size: 14px&quot;&gt;&amp;nbsp;&amp;nbsp;&amp;nbsp;&amp;nbsp;&amp;nbsp; - docs: /doofie/deploy/win/docs&lt;/div&gt;&lt;div style=&quot;font-size: 14px&quot;&gt;&amp;nbsp;&amp;nbsp;&amp;nbsp;&amp;nbsp;&amp;nbsp; - scripts: /doofie/deploy/win/scripts&lt;br&gt;&lt;/div&gt;" style="rounded=0;whiteSpace=wrap;html=1;fontSize=18;align=left;verticalAlign=top;" parent="1" vertex="1">
          <mxGeometry x="5" y="781" width="425" height="489" as="geometry"/>
        </mxCell>
        <mxCell id="tNTnbMQYnR6y0WdzU1tK-9" value="|| OS || /Project]/deploy/{OS} || [win,osx,nix] ||" style="rounded=0;whiteSpace=wrap;html=1;fontSize=14;align=left;verticalAlign=top;fillColor=#d5e8d4;strokeColor=#82b366;" parent="1" vertex="1">
          <mxGeometry x="140" y="140" width="380" height="320" as="geometry"/>
        </mxCell>
        <mxCell id="tNTnbMQYnR6y0WdzU1tK-10" value="&lt;div&gt;Heading Pattern:&lt;/div&gt;&lt;div&gt;|| [TITLE] || [URL] || [OPTIONS] (if avail) ||&lt;br&gt;&lt;/div&gt;" style="rounded=1;whiteSpace=wrap;html=1;fontSize=14;align=left;fillColor=#d5e8d4;strokeColor=#82b366;" parent="1" vertex="1">
          <mxGeometry x="550" y="770" width="285" height="60" as="geometry"/>
        </mxCell>
        <mxCell id="tNTnbMQYnR6y0WdzU1tK-12" value="&lt;div style=&quot;font-size: 14px&quot;&gt;|| App || /[Project]/[App] || [app_name, &quot;app&quot; as default value] ||&lt;br&gt;&lt;/div&gt;" style="rounded=0;whiteSpace=wrap;html=1;labelPosition=center;verticalLabelPosition=middle;align=left;verticalAlign=top;spacingLeft=0;spacingRight=0;spacingTop=0;spacingBottom=0;textDirection=ltr;fontSize=18;fillColor=#e1d5e7;strokeColor=#9673a6;" parent="1" vertex="1">
          <mxGeometry x="130" y="508" width="400" height="42" as="geometry"/>
        </mxCell>
        <mxCell id="RUVnAsfh-7VOa81i99IY-1" value="|| Env || /Project]/deploy/{OS}/{ENV} || [local, cloud] ||" style="rounded=0;whiteSpace=wrap;html=1;fontSize=14;align=left;verticalAlign=top;fillColor=#fff2cc;strokeColor=#d6b656;" vertex="1" parent="1">
          <mxGeometry x="150" y="174" width="350" height="180" as="geometry"/>
        </mxCell>
        <mxCell id="tNTnbMQYnR6y0WdzU1tK-11" value="|| Files || /[Project]/deploy/[OS]/files ||" style="rounded=0;whiteSpace=wrap;html=1;fontSize=14;align=left;verticalAlign=top;fillColor=#f8cecc;strokeColor=#b85450;" parent="1" vertex="1">
          <mxGeometry x="160" y="300" width="330" height="40" as="geometry"/>
        </mxCell>
        <mxCell id="tNTnbMQYnR6y0WdzU1tK-7" value="|| Docs || /[Project]/deploy/[OS]/docs ||" style="rounded=0;whiteSpace=wrap;html=1;fontSize=14;align=left;verticalAlign=top;fillColor=#f8cecc;strokeColor=#b85450;" parent="1" vertex="1">
          <mxGeometry x="160" y="252" width="330" height="40" as="geometry"/>
        </mxCell>
        <mxCell id="tNTnbMQYnR6y0WdzU1tK-6" value="|| Scripts || /[Project]/deploy/[OS]/scripts ||" style="rounded=0;whiteSpace=wrap;html=1;fontSize=14;align=left;verticalAlign=top;fillColor=#f8cecc;strokeColor=#b85450;" parent="1" vertex="1">
          <mxGeometry x="160" y="204" width="330" height="40" as="geometry"/>
        </mxCell>
      </root>
    </mxGraphModel>
  </diagram>
</mxfile>
